<svg width="37" height="37" viewBox="0 0 37 37" fill="none" xmlns="http://www.w3.org/2000/svg">
    <path d="M34.7039 18.4397C35.2747 18.0131 35.7557 17.4782 36.1195 16.8655C36.4833 16.2528 36.7227 15.5744 36.8241 14.8691C36.9255 14.1638 36.8868 13.4455 36.7103 12.7551C36.5338 12.0648 36.2229 11.416 35.7955 10.8459C35.368 10.2758 34.8323 9.7956 34.2191 9.43273C33.6059 9.06985 32.9271 8.83143 32.2217 8.7311C31.5162 8.63078 30.7979 8.67053 30.1079 8.84807C29.4178 9.02561 28.7695 9.33745 28.2 9.76577V5.42433C28.2004 4.28587 27.8424 3.17618 27.1767 2.25262C26.5111 1.32905 25.5715 0.638486 24.4914 0.27885C23.4112 -0.0807863 22.2452 -0.0912422 21.1588 0.248966C20.0724 0.589174 19.1206 1.26278 18.4385 2.17426C18.0118 1.60372 17.4768 1.12289 16.8642 0.759257C16.2515 0.395626 15.5732 0.15633 14.868 0.0550522C14.1628 -0.0462255 13.4446 -0.00749768 12.7543 0.169021C12.0641 0.345539 11.4155 0.656386 10.8455 1.08379C10.2755 1.51118 9.7953 2.04675 9.43244 2.65986C9.06958 3.27297 8.83114 3.95159 8.73075 4.65692C8.63036 5.36225 8.66999 6.08045 8.84738 6.77045C9.02477 7.46045 9.33643 8.10872 9.76455 8.67818H5.42308C4.28462 8.67778 3.17493 9.0358 2.25136 9.70147C1.3278 10.3671 0.637232 11.3067 0.277598 12.3868C-0.0820371 13.467 -0.0924891 14.633 0.247724 15.7194C0.587936 16.8058 1.26155 17.7576 2.17303 18.4397C1.60309 18.8666 1.12285 19.4016 0.759736 20.0142C0.396626 20.6268 0.157765 21.3049 0.0567998 22.0098C-0.0441654 22.7147 -0.00525623 23.4326 0.171305 24.1224C0.347865 24.8123 0.658618 25.4606 1.08581 26.0303C1.513 26.6 2.04825 27.08 2.661 27.4428C3.27374 27.8056 3.95196 28.0441 4.65691 28.1447C5.36186 28.2453 6.07973 28.2061 6.7695 28.0292C7.45927 27.8523 8.10742 27.5412 8.67693 27.1137V31.4551C8.67654 32.5936 9.03456 33.7033 9.70023 34.6268C10.3659 35.5504 11.3054 36.241 12.3856 36.6006C13.4657 36.9602 14.6317 36.9707 15.7182 36.6305C16.8046 36.2903 17.7564 35.6167 18.4385 34.7052C18.8652 35.2757 19.4001 35.7564 20.0128 36.12C20.6254 36.4836 21.3037 36.7228 22.0089 36.8241C22.7141 36.9253 23.4323 36.8866 24.1225 36.7101C24.8127 36.5335 25.4613 36.2227 26.0312 35.7953C26.6012 35.3679 27.0813 34.8324 27.4442 34.2193C27.8071 33.6063 28.0455 32.9277 28.1459 32.2224C28.2463 31.5171 28.2067 30.7989 28.0294 30.109C27.8521 29.419 27.5405 28.7707 27.1124 28.2013H31.4539C32.5923 28.2017 33.702 27.8437 34.6256 27.178C35.5492 26.5123 36.2397 25.5728 36.5994 24.4926C36.959 23.4125 36.9694 22.2465 36.6292 21.16C36.289 20.0736 35.6154 19.1218 34.7039 18.4397ZM31.4539 10.8474C32.3168 10.8474 33.1445 11.1902 33.7547 11.8004C34.3649 12.4107 34.7077 13.2383 34.7077 14.1013C34.7077 14.9642 34.3649 15.7919 33.7547 16.4021C33.1445 17.0123 32.3168 17.3551 31.4539 17.3551H28.2V14.1013C28.201 13.2386 28.5441 12.4115 29.1541 11.8015C29.7641 11.1915 30.5912 10.8484 31.4539 10.8474ZM22.7769 2.17048C23.6396 2.17147 24.4667 2.5146 25.0767 3.1246C25.6867 3.7346 26.0298 4.56166 26.0308 5.42433V14.1013C26.0298 14.9639 25.6867 15.791 25.0767 16.401C24.4667 17.011 23.6396 17.3541 22.7769 17.3551H19.5231V5.42433C19.5241 4.56166 19.8672 3.7346 20.4772 3.1246C21.0872 2.5146 21.9143 2.17147 22.7769 2.17048ZM10.8462 5.42433C10.8462 4.56136 11.189 3.73373 11.7992 3.12351C12.4094 2.5133 13.237 2.17048 14.1 2.17048C14.963 2.17048 15.7906 2.5133 16.4008 3.12351C17.011 3.73373 17.3539 4.56136 17.3539 5.42433V8.67818H14.1C13.2373 8.67719 12.4103 8.33406 11.8003 7.72406C11.1903 7.11406 10.8472 6.287 10.8462 5.42433ZM2.16923 14.1013C2.17022 13.2386 2.51335 12.4115 3.12335 11.8015C3.73336 11.1915 4.56041 10.8484 5.42308 10.8474H14.1C14.9627 10.8484 15.7897 11.1915 16.3997 11.8015C17.0097 12.4115 17.3529 13.2386 17.3539 14.1013V17.3551H5.42308C4.56041 17.3541 3.73336 17.011 3.12335 16.401C2.51335 15.791 2.17022 14.9639 2.16923 14.1013V14.1013ZM5.42308 26.032C4.56011 26.032 3.73248 25.6892 3.12226 25.079C2.51205 24.4688 2.16923 23.6412 2.16923 22.7782C2.16923 21.9152 2.51205 21.0876 3.12226 20.4774C3.73248 19.8672 4.56011 19.5243 5.42308 19.5243H8.67693V22.7782C8.67595 23.6409 8.33281 24.4679 7.72281 25.0779C7.11281 25.6879 6.28575 26.0311 5.42308 26.032ZM14.1 34.709C13.2373 34.708 12.4103 34.3649 11.8003 33.7549C11.1903 33.1448 10.8472 32.3178 10.8462 31.4551V22.7782C10.8472 21.9155 11.1903 21.0885 11.8003 20.4785C12.4103 19.8685 13.2373 19.5253 14.1 19.5243H17.3539V31.4551C17.3529 32.3178 17.0097 33.1448 16.3997 33.7549C15.7897 34.3649 14.9627 34.708 14.1 34.709ZM26.0308 31.4551C26.0308 32.3181 25.688 33.1457 25.0778 33.7559C24.4675 34.3662 23.6399 34.709 22.7769 34.709C21.914 34.709 21.0863 34.3662 20.4761 33.7559C19.8659 33.1457 19.5231 32.3181 19.5231 31.4551V28.2013H22.7769C23.6396 28.2023 24.4667 28.5454 25.0767 29.1554C25.6867 29.7654 26.0298 30.5925 26.0308 31.4551ZM31.4539 26.032H22.7769C21.9143 26.0311 21.0872 25.6879 20.4772 25.0779C19.8672 24.4679 19.5241 23.6409 19.5231 22.7782V19.5243H31.4539C32.3168 19.5243 33.1445 19.8672 33.7547 20.4774C34.3649 21.0876 34.7077 21.9152 34.7077 22.7782C34.7077 23.6412 34.3649 24.4688 33.7547 25.079C33.1445 25.6892 32.3168 26.032 31.4539 26.032Z" fill="#31A5D7"/>
</svg>

